<?xml version="1.0"?>
<svg xmlns="http://www.w3.org/2000/svg" id="Capa_1" enable-background="new 0 0 512 512" height="512" viewBox="0 0 512 512" width="512"><g><g><path d="m122.401 147.578c7.553 29.219 28.013 102.88 54.792 155.678 1.117 2.202 3.247 3.713 5.694 4.041 22.767 3.047 81.42 9.884 148.575 9.884 39.059 0 81.004-2.315 120.409-9.035 3.133-.534 5.589-2.985 6.13-6.116 5.002-28.96 21.494-128.868 23.689-198.598.063-2.006-.68-3.954-2.063-5.407s-3.293-2.292-5.3-2.328c-21.49-.38-65.367-.527-117.78 2.782-91.233 5.758-170.542 19.638-229.354 40.139-3.685 1.286-5.769 5.182-4.792 8.96zm103.358 48.812-10.204-65.499c22.66-4.429 46.926-8.182 72.552-11.215l5.34 69.74c-24.503 2.146-47.451 4.588-67.688 6.974zm232.598 1.785c-.635 5.071-1.285 10.086-1.943 15.022-113.107-2.965-244.895 14.655-291.735 21.604-1.74-4.859-3.423-9.699-5.042-14.483 43.526-6.527 181.295-25.4 298.72-22.143zm-161.47 36.153 5.159 67.438c-22.025-.631-42.544-1.892-60.393-3.336l-8.956-57.495c19.323-2.269 41.066-4.575 64.19-6.607zm-126.894 14.851c11.813-1.731 28.201-4.015 47.803-6.445l8.466 54.351c-15.698-1.472-28.546-2.99-37.454-4.138-6.73-13.649-13.039-28.619-18.815-43.768zm147.122 52.91-5.28-69.018c21.635-1.738 44.232-3.188 67.003-4.114l-.399 72.016c-20.876 1.126-41.573 1.4-61.324 1.116zm127.004-7.865c-16.608 2.651-33.639 4.525-50.674 5.789l.397-71.588c20.37-.611 40.732-.757 60.525-.274-3.927 27.94-7.854 51.977-10.248 66.073zm22.287-183.638c-1.009 22.591-3.367 47.889-6.243 72.632-21.572-.631-43.829-.516-66.078.132l.398-71.761c30.094-1.137 55.282-1.19 71.923-1.003zm-108.914 2.864c7.522-.475 14.863-.877 21.987-1.218l-.398 71.631c-24.053.951-47.906 2.474-70.685 4.301l-5.372-70.156c17.589-1.853 35.768-3.378 54.468-4.558zm-156.647 20.463 10.014 64.281c-24.895 3.094-44.465 5.926-55.983 7.672-7.025-21.882-12.559-41.647-16.188-55.311 18.776-6.223 39.593-11.783 62.157-16.642z" data-original="#000000" class="active-path" style="fill:#3ED04F" data-old_color="#000000"/><path d="m195.392 432.824c-13.075 0-23.712 10.637-23.712 23.712s10.637 23.712 23.712 23.712 23.712-10.637 23.712-23.712-10.637-23.712-23.712-23.712zm0 32.425c-4.804 0-8.712-3.908-8.712-8.712s3.908-8.712 8.712-8.712 8.712 3.908 8.712 8.712-3.908 8.712-8.712 8.712z" data-original="#000000" class="active-path" style="fill:#3ED04F" data-old_color="#000000"/><path d="m438.511 432.824c-13.075 0-23.712 10.637-23.712 23.712s10.637 23.712 23.712 23.712 23.712-10.637 23.712-23.712-10.637-23.712-23.712-23.712zm0 32.425c-4.804 0-8.712-3.908-8.712-8.712s3.908-8.712 8.712-8.712 8.712 3.908 8.712 8.712-3.909 8.712-8.712 8.712z" data-original="#000000" class="active-path" style="fill:#3ED04F" data-old_color="#000000"/><path d="m438.511 409.283c-1.448 0-2.879.076-4.295.204-7.678-9.598-15.965-18.807-24.688-27.415-2.946-2.908-7.696-2.878-10.605.07-2.91 2.948-2.879 7.697.07 10.606 6.763 6.674 13.25 13.73 19.375 21.054-4.62 2.187-8.825 5.104-12.479 8.597-27.906-32.912-58.801-53.949-80.423-66.025-6.412-3.584-12.51-6.67-18.134-9.311 7.678.172 15.521.267 23.488.267 3.094 0 6.166-.016 9.222-.044 13.131 7.808 25.718 16.59 37.426 26.145 1.393 1.137 3.07 1.689 4.737 1.689 2.176 0 4.333-.941 5.815-2.758 2.619-3.209 2.141-7.934-1.068-10.553-6.478-5.286-13.21-10.348-20.146-15.154 37.036-1.411 70.917-5.043 101.062-10.86 9.048-1.742 16.237-9.003 17.888-18.059 1.072-5.826 26.244-143.683 26.244-229.176 0-12.128-9.489-22.018-21.594-22.513-2.37-.101-58.944-2.397-135.406 2.408-66.907 4.201-126.557 12.399-177.292 24.366-4.032.951-6.529 4.99-5.578 9.021s4.99 6.527 9.021 5.578c49.915-11.773 108.722-19.847 174.789-23.995 75.686-4.756 131.494-2.49 133.843-2.392 4.047.166 7.217 3.472 7.217 7.527 0 84.14-24.935 220.691-25.998 226.475-.552 3.026-2.951 5.45-5.973 6.031-38.728 7.475-83.882 11.264-134.209 11.264-84.504 0-154.887-10.754-157.83-11.21-2.33-.365-4.382-1.817-5.494-3.89-36.905-68.692-61.975-174.796-63.024-179.279-.852-3.644 1.136-7.401 4.628-8.741 13.527-5.2 28.125-10.033 43.387-14.366 3.984-1.131 6.298-5.278 5.167-9.263s-5.279-6.298-9.263-5.167c-6.85 1.945-13.563 3.994-20.125 6.126-.418-1.481-.843-2.948-1.28-4.381-7.248-23.757-17.159-42.034-29.453-54.317-5.606-5.616-12.284-10.245-19.883-13.797-5.778-15.088-20.404-25.835-37.501-25.835-22.138 0-40.149 18.011-40.149 40.15 0 22.138 18.011 40.149 40.149 40.149 9.586 0 18.396-3.382 25.307-9.009.069.067.145.131.213.199 14.587 14.588 22.278 48.846 23.822 59.697 0 .003.01.001.011.003.093.657.212 1.314.365 1.97 1.068 4.562 26.582 112.539 64.413 182.954 3.316 6.186 9.443 10.528 16.402 11.618 1.549.24 21.351 3.267 51.928 6.14-20.405 24.012-32.398 49.516-39.248 68.759-20.247 5.335-35.223 23.797-35.223 45.696 0 26.056 21.198 47.253 47.253 47.253s47.253-21.198 47.253-47.253c0-13.693-5.86-26.039-15.198-34.677 8.235-21.402 23.326-49.257 50.246-70.778 8.86 3.091 23.468 8.89 40.456 18.387 21.086 11.777 51.456 32.53 78.474 65.236-3.42 6.535-5.366 13.958-5.366 21.832 0 26.056 21.197 47.253 47.253 47.253s47.253-21.198 47.253-47.253-21.197-47.253-47.252-47.253zm-398.362-335.774c-13.867 0-25.149-11.282-25.149-25.149 0-13.868 11.282-25.15 25.149-25.15s25.149 11.282 25.149 25.15c0 13.867-11.282 25.149-25.149 25.149zm34.984-5.486c2.608-4.621 4.33-9.804 4.926-15.322 2.477 1.742 4.777 3.653 6.866 5.745 10.542 10.532 19.193 26.712 25.714 48.088.481 1.58.95 3.202 1.408 4.847-3.5 1.252-6.945 2.527-10.324 3.826-1.326.509-2.578 1.136-3.75 1.863-4.139-15.358-11.562-35.842-23.698-47.979-.367-.366-.757-.715-1.142-1.068zm120.259 420.767c-17.785 0-32.253-14.469-32.253-32.253s14.469-32.253 32.253-32.253 32.253 14.469 32.253 32.253-14.469 32.253-32.253 32.253zm19.266-75.385c-4.59-2.059-9.562-3.41-14.783-3.904 7.582-19.346 20.37-43.768 41.464-65.806 6.427.505 13.178.984 20.208 1.42-24.077 21.538-38.466 47.396-46.889 68.29zm223.853 75.385c-17.784 0-32.253-14.469-32.253-32.253s14.469-32.253 32.253-32.253 32.253 14.469 32.253 32.253-14.469 32.253-32.253 32.253z" data-original="#000000" class="active-path" style="fill:#3ED04F" data-old_color="#000000"/></g></g> </svg>
